<svg width="1500" height="440" viewBox="0 0 1500 440" xmlns="http://www.w3.org/2000/svg"><g transform="translate(327 141)" fill="none"><g transform="translate(596.814)"><path d="M2.08066549,1.12716229 C4.01351696,-0.375720764 6.73648304,-0.375720764 8.66933451,1.12716229 L9.17569895,1.57430105 L26.875,19.269375 L44.5743011,1.57430105 L45.0806655,1.12716229 C47.1892307,-0.512346496 50.2380977,-0.363300243 52.1756989,1.57430105 C54.1133002,3.51190234 54.2623465,6.56076927 52.6228377,8.66933451 L52.1756989,9.17569895 L34.480625,26.875 L52.1756989,44.5743011 C54.274767,46.6733691 54.274767,50.0766309 52.1756989,52.1756989 C50.2380977,54.1133002 47.1892307,54.2623465 45.0806655,52.6228377 L44.5743011,52.1756989 L26.875,34.480625 L9.17569895,52.1756989 C7.23809766,54.1133002 4.18923073,54.2623465 2.08066549,52.6228377 L1.57430105,52.1756989 C-0.363300243,50.2380977 -0.512346496,47.1892307 1.12716229,45.0806655 L1.57430105,44.5743011 L19.269375,26.875 L1.57430105,9.17569895 L1.12716229,8.66933451 C-0.375720764,6.73648304 -0.375720764,4.01351696 1.12716229,2.08066549 L1.57430105,1.57430105 L2.08066549,1.12716229 Z" transform="translate(124.31 87.275)" fill="#FF568D"/><path d="M1.57430105,52.1760781 C-0.524767017,50.0770101 -0.524767017,46.6737483 1.57430105,44.5746802 C3.51190234,42.6370789 6.56076927,42.4880327 8.66933451,44.1275415 L9.17569895,44.5746802 L20.852,56.251 L60.1530435,2.21395631 C61.8990492,-0.186801445 65.2606651,-0.717582907 67.6614229,1.02842273 C69.877507,2.64012025 70.5002385,5.62843245 69.2096497,7.96689711 L68.8469565,8.53680206 L25.9381302,67.5341881 C25.8713558,67.6316356 25.8010118,67.7273722 25.7270984,67.821215 L25.8469565,67.6618021 C25.7888773,67.7416609 25.7290104,67.8194507 25.6674507,67.8951564 C25.6496981,67.9173232 25.6314462,67.9393176 25.6129919,67.9611994 C25.5776227,68.0031761 25.5421269,68.0441676 25.5061272,68.0845034 C25.4837258,68.1091158 25.4606127,68.1344293 25.4372139,68.1595733 C25.4011457,68.1991504 25.3648407,68.2371616 25.328079,68.2745414 C25.3190113,68.2827007 25.3098752,68.2919019 25.3006989,68.3010781 L25.2864359,68.3164211 C24.9344892,68.6664916 24.5419808,68.9596714 24.1221545,69.1938695 C24.1014283,69.2055575 24.0804779,69.2170924 24.0594677,69.228477 C24.0100962,69.2549748 23.9603152,69.2808739 23.9101907,69.3059614 C23.8751814,69.3239059 23.8399517,69.3410962 23.8045766,69.3578784 C23.7719864,69.3728101 23.7392757,69.3878931 23.7064344,69.4026378 C23.6644149,69.422126 23.6222164,69.4404534 23.5798365,69.4582138 C23.5521889,69.4691039 23.5241895,69.4805448 23.4961061,69.4917449 C23.4408578,69.5145307 23.3854943,69.5355721 23.3298656,69.5556663 C23.3201172,69.5583995 23.310418,69.5618693 23.30071,69.565311 C23.2414148,69.5871346 23.1817719,69.6071106 23.1218632,69.626012 C23.1073349,69.6297982 23.0929986,69.6342563 23.0786456,69.638654 C23.0208682,69.657145 22.9625156,69.6739383 22.9039482,69.6897249 C22.888594,69.6931227 22.8732418,69.6971939 22.8578732,69.7011971 C22.8065384,69.7152739 22.7550989,69.7278398 22.7035191,69.7396368 C22.6620801,69.7484876 22.6207554,69.7574524 22.5793354,69.7659306 C22.5536914,69.7717332 22.5276756,69.7768419 22.5016306,69.7817572 C22.4615434,69.7888374 22.4216289,69.7959342 22.3816403,69.8025813 C22.3319686,69.8112146 22.2822723,69.8187209 22.2324989,69.8255296 C22.2192911,69.8270596 22.2056178,69.8288902 22.1919374,69.8306685 C22.1397159,69.837659 22.0877489,69.8435966 22.0357208,69.8487775 C21.9872846,69.8535355 21.9390055,69.8577317 21.8906686,69.8612784 C21.8614476,69.8633661 21.832383,69.8652344 21.8033077,69.8668676 C21.4928862,69.8847292 21.1799725,69.8756568 20.868744,69.8391462 C20.864291,69.8378813 20.8602814,69.8374049 20.8562723,69.8369241 C20.6279687,69.8103641 20.4001382,69.7681714 20.1747243,69.710912 C20.1581716,69.7060974 20.142141,69.7019551 20.126126,69.6977378 C20.0696986,69.6834289 20.0129854,69.667453 19.9564571,69.6505101 C19.9315156,69.6426125 19.906856,69.6350495 19.8822412,69.6273051 C19.8364047,69.6132095 19.7904373,69.5980127 19.7446135,69.5821659 C19.705076,69.5683243 19.6656692,69.5542256 19.6263984,69.5396524 C19.5941268,69.5276999 19.5620713,69.5154081 19.5300975,69.5027914 C19.4930135,69.4882752 19.4559273,69.4732118 19.4189789,69.4577172 C19.380827,69.4414389 19.3428467,69.4249348 19.3049995,69.407961 C19.2693764,69.3924277 19.2340302,69.3761618 19.1988276,69.3594919 C19.1688387,69.3447016 19.1385218,69.3299523 19.108301,69.3148943 C18.9853949,69.2544955 18.8647205,69.1886476 18.7461858,69.1178353 C18.7377449,69.1116963 18.7287265,69.1062681 18.7197188,69.1008105 C18.5972335,69.0277599 18.4776617,68.948695 18.3607173,68.8643532 C18.3537376,68.8583318 18.3461526,68.8528451 18.3385771,68.8473356 L18.2947247,68.815989 C18.264858,68.7937485 18.2351697,68.7711578 18.2056655,68.7482169 L18.186,68.732 L18.1415132,68.6970817 C18.0130755,68.5944595 17.8905258,68.4870063 17.7739356,68.3751733 L1.57430105,52.1760781 Z" transform="translate(63.248 12.212)" fill="#46ECA1"/><path d="M35.3596838,142 L35.3596838,131.897233 L25.6778656,131.897233 C23.1521739,131.897233 21.8893281,130.494071 21.8893281,127.687747 L21.8893281,127.687747 L21.8893281,82.7865613 C21.8893281,79.6060606 20.8837286,76.9868248 18.8725296,74.9288538 C16.8613307,72.8708827 14.2187088,71.8418972 10.944664,71.8418972 L10.944664,71.8418972 L9.26086957,71.8418972 L9.26086957,70.1581028 L10.944664,70.1581028 C14.2187088,70.1581028 16.8613307,69.1291173 18.8725296,67.0711462 C20.8837286,65.0131752 21.8893281,62.3939394 21.8893281,59.2134387 L21.8893281,59.2134387 L21.8893281,14.312253 C21.8893281,11.5059289 23.1521739,10.1027668 25.6778656,10.1027668 L25.6778656,10.1027668 L35.3596838,10.1027668 L35.3596838,0 L21.7490119,0 C18.5685112,0 15.9726614,1.02898551 13.9614625,3.08695652 C11.9502635,5.14492754 10.944664,7.76416337 10.944664,10.944664 L10.944664,10.944664 L10.944664,59.3537549 C10.944664,62.0665349 9.68181818,63.4229249 7.15612648,63.4229249 L7.15612648,63.4229249 L0,63.4229249 L0,78.5770751 L7.15612648,78.5770751 C9.68181818,78.5770751 10.944664,79.9334651 10.944664,82.6462451 L10.944664,82.6462451 L10.944664,131.055336 C10.944664,134.235837 11.9502635,136.855072 13.9614625,138.913043 C15.9726614,140.971014 18.5685112,142 21.7490119,142 L21.7490119,142 L35.3596838,142 Z" fill="#9695AE"/><path d="M249.359684,142 L249.359684,131.897233 L239.677866,131.897233 C237.152174,131.897233 235.889328,130.494071 235.889328,127.687747 L235.889328,127.687747 L235.889328,82.7865613 C235.889328,79.6060606 234.883729,76.9868248 232.87253,74.9288538 C230.861331,72.8708827 228.218709,71.8418972 224.944664,71.8418972 L224.944664,71.8418972 L223.26087,71.8418972 L223.26087,70.1581028 L224.944664,70.1581028 C228.218709,70.1581028 230.861331,69.1291173 232.87253,67.0711462 C234.883729,65.0131752 235.889328,62.3939394 235.889328,59.2134387 L235.889328,59.2134387 L235.889328,14.312253 C235.889328,11.5059289 237.152174,10.1027668 239.677866,10.1027668 L239.677866,10.1027668 L249.359684,10.1027668 L249.359684,0 L235.749012,0 C232.568511,0 229.972661,1.02898551 227.961462,3.08695652 C225.950264,5.14492754 224.944664,7.76416337 224.944664,10.944664 L224.944664,10.944664 L224.944664,59.3537549 C224.944664,62.0665349 223.681818,63.4229249 221.156126,63.4229249 L221.156126,63.4229249 L214,63.4229249 L214,78.5770751 L221.156126,78.5770751 C223.681818,78.5770751 224.944664,79.9334651 224.944664,82.6462451 L224.944664,82.6462451 L224.944664,131.055336 C224.944664,134.235837 225.950264,136.855072 227.961462,138.913043 C229.972661,140.971014 232.568511,142 235.749012,142 L235.749012,142 L249.359684,142 Z" fill="#9695AE" transform="matrix(-1 0 0 1 463.36 0)"/></g><path d="M504.511068 21.4903139 511.938489 2.25283076 511.615558 1.06106022 438.133293 20.4215648C445.968223 9.08821144 443.277129 0 443.277129 0 443.277129 0 419.810782 14.9855534 402.064935 14.5934224 384.319087 14.2012915 378.598588 9.46496471 351.387776 18.1456675 324.176964 26.8186815 316.488121 53.4451419 308.599369 59.1656405 300.710617 64.8861391 275.960234 83.5162036 275.960234 83.5162036L276.014056 83.8468238 298.327076 76.7423337C298.327076 76.7423337 292.206758 82.5089653 279.204926 100.031837 279.204926 100.031837 278.981949 99.8242379 278.597507 99.4705511L278.620574 99.5935726C278.620574 99.5935726 289.06971 115.563298 299.326626 112.610782 300.35693 112.310918 301.517946 111.818832 302.786605 111.172969 306.915513 113.471933 312.305391 115.732452 318.256555 116.355249 318.256555 116.355249 314.227602 111.672744 310.867578 106.344376 311.774861 105.760024 312.705211 105.152605 313.650939 104.537498L313.212675 104.845052 321.708845 107.966722 320.770806 99.9780147C320.801562 99.962637 320.824628 99.9395705 320.855384 99.9241928L329.205466 102.992041 328.167473 95.726085C329.228533 95.1724884 330.281904 94.6496471 331.335276 94.16525L340.039045 61.2416279 376.030515 36.6911548 373.170266 43.8879111C365.873555 61.8336687 352.172038 66.0702208 352.172038 66.0702208L346.451539 68.2384742C342.19961 73.266977 340.408109 74.5048806 338.947229 91.3818892 342.376453 90.5207388 345.6519 90.3131401 348.619793 91.1127797 363.997477 95.2570656 369.325845 113.787175 365.181559 118.915633 364.143565 120.19967 361.675447 122.39099 358.561466 124.966752L352.318126 124.966752 352.233549 130.02601C352.018261 130.195164 351.802973 130.35663 351.595375 130.525785L345.244391 130.525785 345.167503 135.462021C344.606217 135.892596 344.044932 136.307794 343.506713 136.715303 337.540171 136.838324 329.982039 131.632978 329.982039 131.632978 329.982039 136.369305 333.926415 143.658327 333.926415 143.658327 333.926415 143.658327 334.187836 143.535306 334.6261 143.320018 334.241658 143.604505 334.02637 143.758282 334.02637 143.758282 334.02637 143.758282 349.996096 154.407328 360.053101 150.462952 368.995225 146.95684 392.146328 128.703529 412.129629 120.06127L472.602373 104.129989 480.575702 83.4700706 434.488782 95.6107524 434.488782 77.0575762 488.564409 62.8101517 496.537738 42.1502328 434.50416 58.4967112 434.50416 39.9358462 504.511068 21.4903139ZM210.928007 21.4749362C214.718606 21.4749362 217.563478 22.066977 219.339601 22.6590179L216.02571 34.0308154C214.603274 33.5541072 213.303859 33.323442 211.404715 33.323442 206.076348 33.323442 202.993122 38.8901637 202.047395 43.9801772L201.570686 46.4636732 212.483 46.4629362 212.481153 46.4482955 227.997237 46.4482955 227.997237 46.4636732 228.350924 74.3049707C228.466256 79.7563598 228.589278 83.7853131 228.466256 88.0449317L228.70461 88.0449317C229.888692 83.3086049 231.072774 79.3949842 233.08725 73.2362217L241.85253 46.4636732 256.776573 46.4636732 237.831266 92.0661961C232.141523 105.337138 225.629073 116.470581 218.524583 122.98303 215.087671 126.181589 211.066406 128.672774 208.575222 129.733834L202.654813 117.646974C205.261331 116.339871 207.983181 114.802102 210.351344 112.910647 213.672924 110.181108 216.863793 106.867217 218.286229 103.668659 218.524583 102.838264 218.755249 102.246223 218.639916 101.062141L213.658 56.8889362 199.794564 56.8897432 190.675597 104.39141 175.866887 104.39141 184.985854 56.8897432 187.008019 46.4636732 187.477039 44.0955098C188.784142 37.2293738 191.390659 31.3012765 196.242319 26.8033038 199.794564 23.4894128 205.007599 21.4749362 210.928007 21.4749362ZM65.9779546 45.5256345C71.7830305 45.5256345 77.5881063 46.4713621 81.1403514 47.8937979L74.7509236 80.1023577C73.3284878 86.8531611 72.2597387 98.1096261 72.3827602 104.383721L59.588 104.382936 59.6311899 103.361263C59.7553082 100.600621 59.9550283 97.7286012 60.0575462 94.6804025L59.7038594 94.6804025C55.0828653 102.384622 49.5161436 105.344827 44.8951494 105.344827 36.4835561 105.344827 32.3392702 98.1173149 32.3392702 87.929599 32.3392702 70.3990389 41.1045502 45.5256345 65.9779546 45.5256345ZM148.310077 30.8245683 145.349872 46.4636732 177.812164 46.4636732 166.678721 104.39141 151.870011 104.39141 160.999 56.8889362 143.335396 56.8897432 138.237693 83.7776243C137.884007 85.7921009 137.760985 87.5682235 137.760985 88.6369725 137.760985 92.1892176 139.537108 93.4963208 142.266647 93.4963208 143.335396 93.4963208 144.873164 93.4963208 146.2956 93.2579667L144.519477 104.39141C141.797627 105.106472 138.476047 105.337138 135.631176 105.337138 126.750563 105.337138 122.360234 100.362457 122.360234 92.5429043 122.360234 89.9363868 122.836942 86.7378285 123.428983 83.8929569L128.526686 56.8820544 121.775882 56.8820544 123.790359 46.4559844 130.541162 46.4559844 132.909326 34.492146 148.310077 30.8245683ZM107.451569 45.5179456C112.549272 45.5179456 116.216849 46.4636732 118.346659 47.6477549L115.1481 58.4275116C113.48731 57.4817841 110.76546 56.6513891 108.281964 56.6513891 103.545637 56.6513891 100.585433 59.1348851 100.585433 63.0485058 100.585433 66.00871 102.246223 67.7848326 104.968073 70.0376633 111.480523 75.0123442 113.618021 80.6943986 113.618021 85.2000601 113.618021 97.9942934 104.729719 105.098784 91.4664664 105.098784 86.1380988 105.098784 81.3940832 103.561015 79.3796065 102.138579L82.9241628 91.7125094C85.2923262 93.0196126 88.1371978 94.1960054 92.2814837 94.0806728 96.5487911 93.9653401 98.9169545 91.2358012 98.9169545 87.5682235 98.9169545 84.3696651 97.3791861 82.1168344 93.3502328 78.918276 88.3755519 74.8893227 86.0073885 69.7993092 86.0073885 64.8246283 86.0073885 54.1602042 94.2959604 45.5179456 107.451569 45.5179456ZM35.0611203 21.4749362C38.8517195 21.4749362 41.6965911 22.066977 43.4727136 22.6590179L40.1588226 34.0308154C38.7363868 33.5541072 37.4369725 33.323442 35.5378285 33.323442 30.2094609 33.323442 27.1262352 38.8901637 26.1805076 43.9801772L25.7037994 46.4636732 36.9602643 46.4636732 34.9457877 56.8897432 23.9276768 56.8897432 14.80871 104.39141 0 104.39141 9.11896681 56.8897432 11.1411323 46.4636732 11.6101517 44.0955098C12.9172548 37.2293738 15.5237723 31.3012765 20.3754317 26.8033038 23.9276768 23.4894128 29.1407118 21.4749362 35.0611203 21.4749362ZM61.8413576 56.5360565C52.1303499 56.5360565 46.9173149 75.8427392 46.7942934 84.377354 46.7942934 89.4750563 47.5093558 93.142634 51.1769335 93.142634 55.2058868 93.142634 58.996486 86.5071632 61.1262952 75.9657606L64.9168944 56.8897432C63.7328127 56.6513891 62.6640637 56.5360565 61.8413576 56.5360565ZM174.013876 22.5359964C178.873224 22.5359964 181.126055 26.2035741 181.003033 30.2325274 180.887701 36.1529359 176.858748 39.4745157 172.476108 39.4745157 167.739781 39.4745157 165.609971 36.0376032 165.725304 31.6549632 165.725304 27.3953446 168.800841 22.5359964 174.013876 22.5359964Z" transform="translate(0 .15)" fill="#100C53"/></g></svg>