<svg width="1500" height="440" viewBox="0 0 1500 440" xmlns="http://www.w3.org/2000/svg"><defs><linearGradient x1="20.93%" y1="20.687%" x2="63.394%" y2="44.071%" id="a"><stop stop-color="#249361" offset="0%"/><stop stop-color="#3ECF8E" offset="100%"/></linearGradient><linearGradient x1="2.104%" y1="-13.158%" x2="21.47%" y2="34.708%" id="b"><stop offset="0%"/><stop stop-opacity="0" offset="100%"/></linearGradient></defs><g transform="translate(187 55)" fill="none" fill-rule="evenodd"><g transform="rotate(-14 379.237 46.622)"><rect fill="#0000C2" width="384.773" height="117.122"/><text font-family="SpaceMono-Bold, Space Mono" font-size="69" font-weight="bold" fill="#46ECA1">
                    <tspan x="23.001" y="84.559">BEISPIEL</tspan>
                </text></g><path d="M583.167599,76.1290011 L583.566591,77.5506564 L583.616551,77.7365823 L583.63885,77.9278079 L585.35,92.608 L592.554892,75.3931359 L597.397989,77.4196877 L586.325802,103.880236 L584.524423,108.185211 L581.780828,104.410232 L564.917311,81.2073073 L569.164163,78.1207632 L580.135,93.217 L578.447,78.736 L578.32759,78.2974661 C572.720927,58.26948 558.20986,46.1855352 531.757786,42.1288762 L530.944296,42.0072003 C499.958157,37.4887956 453.313965,44.0603722 388.271261,63.0711543 L386.294635,63.6510475 L384.81166,58.61485 C510.629892,21.5660045 569.544122,29.6029323 583.167599,76.1290011 Z" fill="#0000C2" fill-rule="nonzero"/><g transform="rotate(-3 3510.1 -5964.325)" fill-rule="nonzero"><path d="M208.909468 91.953869C209.73615 99.6933754 216.767776 112.960923 237.173984 112.960923 254.959375 112.960923 263.509115 101.628217 263.509115 90.5719968 263.509115 80.6211633 256.752129 72.4671367 243.378928 69.7028397L233.726486 67.6299624C230.004347 66.9389573 227.522921 64.8659418 227.522921 61.5489513 227.522921 57.6791289 231.38307 54.7770731 236.209291 54.7770731 243.929589 54.7770731 246.825046 59.890456 247.377087 63.8985899L262.681053 60.4434259C261.854371 53.1185778 255.373406 40.8185202 236.071281 40.8185202 221.455987 40.8185202 210.702222 50.907389 210.702222 63.069135 210.702222 72.6051719 216.629766 80.4831281 229.728326 83.385184L238.690717 85.4583376C243.929589 86.5638629 245.998364 89.0518131 245.998364 92.0921805 245.998364 95.6855179 243.102907 98.8641969 237.035973 98.8641969 229.039655 98.8641969 225.040115 93.888711 224.627465 88.498705L208.909468 91.953869ZM322.111061 110.887908 339.621812 110.887908C339.345791 108.538407 338.93176 103.839545 338.93176 98.5875737L338.93176 42.8913975 320.592948 42.8913975 320.592948 82.4176938C320.592948 90.2955119 315.906117 95.8235531 307.771788 95.8235531 299.223428 95.8235531 295.361899 89.7425419 295.361899 82.141347L295.361899 42.8913975 277.024467 42.8913975 277.024467 85.872996C277.024467 100.660727 286.399508 112.684576 302.807556 112.684576 309.975813 112.684576 317.838261 109.920556 321.5604 103.56306 321.5604 106.32708 321.835041 109.505759 322.111061 110.887908ZM376.839058 137.146794 376.839058 104.254341C380.147165 108.814892 387.042161 112.546679 396.418583 112.546679 415.582698 112.546679 428.403857 97.343875 428.403857 76.7514792 428.403857 56.5738799 416.961421 41.371352 397.107255 41.371352 386.905531 41.371352 379.321864 45.9319031 376.288397 51.1838739L376.288397 42.8915357 358.503005 42.8915357 358.503005 137.146794 376.839058 137.146794ZM410.342446 76.8897908C410.342446 89.0519513 402.898168 96.1001762 393.521746 96.1001762 384.148085 96.1001762 376.564417 88.9136397 376.564417 76.8897908 376.564417 64.86608 384.148085 57.8175787 393.521746 57.8175787 402.898168 57.8175787 410.342446 64.86608 410.342446 76.8897908ZM438.789135 92.3685273C438.789135 103.010366 447.612135 112.822888 462.090799 112.822888 472.153132 112.822888 478.634097 108.123749 482.080215 102.733743 482.080215 105.359728 482.356236 109.091101 482.770267 110.887908L499.590966 110.887908C499.176935 108.538407 498.765664 103.701233 498.765664 100.108034L498.765664 66.6624723C498.765664 52.9802662 490.767965 40.8185202 469.260436 40.8185202 451.059633 40.8185202 441.26918 52.5656079 440.167858 63.2074465L456.436516 66.6624723C456.988557 60.7197727 461.400747 55.6062516 469.395686 55.6062516 477.118744 55.6062516 480.840882 59.6141092 480.840882 64.4512834 480.840882 66.8007839 479.60155 68.7357641 475.740021 69.2884577L459.057332 71.7761315C447.751526 73.4346268 438.789135 80.206505 438.789135 92.3685273ZM465.949568 99.1405437C460.022024 99.1405437 457.125187 95.2708595 457.125187 91.263002 457.125187 86.0111694 460.847326 83.385184 465.536917 82.694317L480.840882 80.3448165 480.840882 83.385184C480.840882 95.4091711 473.671246 99.1405437 465.949568 99.1405437ZM535.036159 110.888184 535.036159 102.595846C538.618907 108.40051 545.788544 112.546679 555.164966 112.546679 574.469851 112.546679 587.15438 97.2058398 587.15438 76.613444 587.15438 56.4355684 575.709183 41.0950052 555.855017 41.0950052 545.788544 41.0950052 538.344267 45.5175211 535.3108 50.354419L535.3108 10.8281918 517.249388 10.8281918 517.249388 110.888184 535.036159 110.888184ZM568.814187 76.7514792C568.814187 89.1899865 561.36991 96.1001762 551.993488 96.1001762 542.756457 96.1001762 535.036159 89.0519513 535.036159 76.7514792 535.036159 64.31311 542.756457 57.5412319 551.993488 57.5412319 561.36991 57.5412319 568.814187 64.31311 568.814187 76.7514792ZM597.536897 92.3685273C597.536897 103.010366 606.359898 112.822888 620.837181 112.822888 630.900895 112.822888 637.38324 108.123749 640.827978 102.733743 640.827978 105.359728 641.105378 109.091101 641.518029 110.887908L658.338728 110.887908C657.927458 108.538407 657.513427 103.701233 657.513427 100.108034L657.513427 66.6624723C657.513427 52.9802662 649.515728 40.8185202 628.006818 40.8185202 609.807396 40.8185202 600.018323 52.5656079 598.91562 63.2074465L615.182898 66.6624723C615.736319 60.7197727 620.14851 55.6062516 628.143448 55.6062516 635.866506 55.6062516 639.588645 59.6141092 639.588645 64.4512834 639.588645 66.8007839 638.347932 68.7357641 634.486403 69.2884577L617.805094 71.7761315C606.499288 73.4346268 597.536897 80.206505 597.536897 92.3685273ZM624.69871 99.1405437C618.769787 99.1405437 615.87295 95.2708595 615.87295 91.263002 615.87295 86.0111694 619.595088 83.385184 624.284679 82.694317L639.588645 80.3448165 639.588645 83.385184C639.588645 95.4091711 632.419008 99.1405437 624.69871 99.1405437ZM670.206237 91.953869C671.031538 99.6933754 678.064545 112.960923 698.469372 112.960923 716.256144 112.960923 724.803123 101.628217 724.803123 90.5719968 724.803123 80.6211633 718.048898 72.4671367 704.674317 69.7028397L695.021874 67.6299624C691.299736 66.9389573 688.81969 64.8659418 688.81969 61.5489513 688.81969 57.6791289 692.678459 54.7770731 697.50468 54.7770731 705.227738 54.7770731 708.121815 59.890456 708.675236 63.8985899L723.977821 60.4434259C723.14976 53.1185778 716.670175 40.8185202 697.36805 40.8185202 682.751376 40.8185202 671.998991 50.907389 671.998991 63.069135 671.998991 72.6051719 677.925154 80.4831281 691.025095 83.385184L699.987486 85.4583376C705.227738 86.5638629 707.295133 89.0518131 707.295133 92.0921805 707.295133 95.6855179 704.399676 98.8641969 698.332742 98.8641969 690.335043 98.8641969 686.338264 93.888711 685.924233 88.498705L670.206237 91.953869ZM752.653608 69.1501461C753.067639 62.9310997 758.307891 55.7442869 767.820943 55.7442869 778.298687 55.7442869 782.712258 62.378268 782.988279 69.1501461L752.653608 69.1501461ZM784.781033 86.8404861C782.574248 92.9212209 777.886037 97.2057016 769.337677 97.2057016 760.237276 97.2057016 752.653608 90.710032 752.242337 81.726965L800.77367 81.726965C800.77367 81.4502037 801.04831 78.6863213 801.04831 76.0603359 801.04831 54.2241032 788.503171 40.8185202 767.544923 40.8185202 750.173562 40.8185202 734.178165 54.9151083 734.178165 76.6133058 734.178165 99.5550638 750.584833 112.960923 769.199666 112.960923 785.882355 112.960923 796.6375 103.148401 800.084998 91.4010372L784.781033 86.8404861Z" fill="#100C53"/><path d="M87.8890375,152.091353 C83.9426321,157.066977 75.9409312,154.340816 75.8458421,147.987603 L74.455388,55.0641974 L136.863245,55.0641974 C148.166981,55.0641974 154.471293,68.1355389 147.442427,76.9988096 L87.8890375,152.091353 Z" fill="url(#a)"/><path d="M87.8890375,152.091353 C83.9426321,157.066977 75.9409312,154.340816 75.8458421,147.987603 L74.455388,55.0641974 L136.863245,55.0641974 C148.166981,55.0641974 154.471293,68.1355389 147.442427,76.9988096 L87.8890375,152.091353 Z" fill-opacity=".2" fill="url(#b)"/><path d="M62.5081097,2.56981661 C66.4545151,-2.40636009 74.456354,0.32022521 74.5514432,6.67352503 L75.1607588,99.5967922 L13.5339433,99.5967922 C2.22986221,99.5967922 -4.07462909,86.5254507 2.95458205,77.6621801 L62.5081097,2.56981661 Z" fill="#3ECF8E"/></g></g></svg>